<svg width="37" height="28" viewBox="0 0 37 28" fill="none" xmlns="http://www.w3.org/2000/svg">
<g clip-path="url(#clip0_3_102)">
<path fill-rule="evenodd" clip-rule="evenodd" d="M4.94971 7.0615C4.94971 6.15539 5.6777 5.42084 6.57572 5.42084H30.4243C30.8555 5.42084 31.2691 5.59369 31.574 5.90138C31.879 6.20906 32.0503 6.62637 32.0503 7.0615V22.2374C32.0503 23.1435 31.3223 23.8781 30.4243 23.8781H6.57572C5.6777 23.8781 4.94971 23.1435 4.94971 22.2374V7.0615Z" fill="#3E42AA"/>
<path fill-rule="evenodd" clip-rule="evenodd" d="M4.94971 5.54424C4.94971 4.75871 5.58081 4.12192 6.35933 4.12192H11.3091C11.683 4.12192 12.0415 4.27177 12.3059 4.5385C12.5702 4.80524 12.7187 5.16701 12.7187 5.54424V7.2793C12.7187 8.06483 12.0876 8.70162 11.3091 8.70162H6.35933C5.58081 8.70162 4.94971 8.06483 4.94971 7.2793V5.54424Z" fill="#3E42AA"/>
<path fill-rule="evenodd" clip-rule="evenodd" d="M7.51562 4.12192H12.2312L13.5281 5.43055V8.77021H7.51562V4.12192Z" fill="#3E42AA"/>
</g>
<defs>
<clipPath id="clip0_3_102">
<rect width="37" height="28" fill="white"/>
</clipPath>
</defs>
</svg>
