<svg width="21" height="23" viewBox="0 0 21 23" fill="none" xmlns="http://www.w3.org/2000/svg">
<path d="M2.625 7.1875H18.375C19.0995 7.1875 19.6875 6.5435 19.6875 5.75C19.6875 4.9565 19.0995 4.3125 18.375 4.3125H2.625C1.9005 4.3125 1.3125 4.9565 1.3125 5.75C1.3125 6.5435 1.9005 7.1875 2.625 7.1875ZM18.375 10.0625H2.625C1.9005 10.0625 1.3125 10.7065 1.3125 11.5C1.3125 12.2935 1.9005 12.9375 2.625 12.9375H18.375C19.0995 12.9375 19.6875 12.2935 19.6875 11.5C19.6875 10.7065 19.0995 10.0625 18.375 10.0625ZM18.375 15.8125H2.625C1.9005 15.8125 1.3125 16.4565 1.3125 17.25C1.3125 18.0435 1.9005 18.6875 2.625 18.6875H18.375C19.0995 18.6875 19.6875 18.0435 19.6875 17.25C19.6875 16.4565 19.0995 15.8125 18.375 15.8125Z" fill="#3E42AA"/>
</svg>
