<svg width="16" height="16" viewBox="0 0 16 16" fill="none" xmlns="http://www.w3.org/2000/svg">
<g clip-path="url(#clip0_3_216)">
<path d="M5.79448 2.20551C5.79448 3.42358 6.78192 4.41102 7.99999 4.41102C9.21806 4.41102 10.2055 3.42358 10.2055 2.20551C10.2055 0.987441 9.21806 -4.31624e-08 7.99999 -9.6406e-08C6.78192 -1.4965e-07 5.79448 0.987441 5.79448 2.20551Z" fill="#3E42AA"/>
<path d="M5.79448 8.00068C5.79448 9.21875 6.78192 10.2062 7.99999 10.2062C9.21806 10.2062 10.2055 9.21875 10.2055 8.00068C10.2055 6.78261 9.21806 5.79517 7.99999 5.79517C6.78192 5.79517 5.79448 6.78261 5.79448 8.00068Z" fill="#3E42AA"/>
<path d="M5.79448 13.7945C5.79448 15.0126 6.78192 16 7.99999 16C9.21806 16 10.2055 15.0126 10.2055 13.7945C10.2055 12.5764 9.21806 11.589 7.99999 11.589C6.78192 11.589 5.79448 12.5764 5.79448 13.7945Z" fill="#3E42AA"/>
</g>
<defs>
<clipPath id="clip0_3_216">
<rect width="16" height="16" fill="white" transform="translate(16) rotate(90)"/>
</clipPath>
</defs>
</svg>
